<?xml version="1.0" encoding="UTF-8"?>
		<svg xmlns="http://www.w3.org/2000/svg"  preserveAspectRatio="none" width="40" height="20">
			<style>
				* {
					vector-effect: non-scaling-stroke;
				}

				.sparkline {
					stroke-width: 2;
					fill: transparent;
					stroke: black;
				}

				.anomaly {
					stroke-dasharray: 4, 2;
					stroke-dashoffset: 1;
				}

			

			</style>

			<path class="sparkline-fill" style="fill:#efc9c9;" d="M -2.857142857142857 8.84016878906271L 0 8.225848271211364L 2.857142857142857 7.852906227347658L 5.714285714285714 7.432082018474471L 8.571428571428571 7.361862217741512L 11.428571428571429 7.409215750545162L 14.285714285714286 6.8961608900832125L 17.142857142857142 6.209895976892909L 20 4.916600653550647L 22.857142857142858 4.346150457485853L 25.714285714285715 3.910118588515733L 28.571428571428573 3.889772786887704L 31.42857142857143 3.6945894381994577L 34.285714285714285 2.86037768075974L 37.142857142857146 2L 37.142857142857146 20 L -5.714285714285714 20"></path>
					<path class="sparkline" style="stroke:#cf1111;" d="M -2.857142857142857 8.84016878906271L 0 8.225848271211364L 2.857142857142857 7.852906227347658L 5.714285714285714 7.432082018474471L 8.571428571428571 7.361862217741512L 11.428571428571429 7.409215750545162L 14.285714285714286 6.8961608900832125L 17.142857142857142 6.209895976892909L 20 4.916600653550647L 22.857142857142858 4.346150457485853L 25.714285714285715 3.910118588515733L 28.571428571428573 3.889772786887704L 31.42857142857143 3.6945894381994577L 34.285714285714285 2.86037768075974L 37.142857142857146 2"></path>
				
				
		</svg>