<?xml version="1.0" encoding="UTF-8"?>
		<svg xmlns="http://www.w3.org/2000/svg"  preserveAspectRatio="none" width="40" height="20">
			<style>
				* {
					vector-effect: non-scaling-stroke;
				}

				.sparkline {
					stroke-width: 2;
					fill: transparent;
					stroke: black;
				}

				.anomaly {
					stroke-dasharray: 4, 2;
					stroke-dashoffset: 1;
				}

			

			</style>

			<path class="sparkline-fill" style="fill:#e1e1e1;" d="M -2.857142857142857 5.858124436087852L 0 5.698329873620583L 2.857142857142857 5.522294641336099L 5.714285714285714 5.308440226889854L 8.571428571428571 5.062331615044386L 11.428571428571429 4.8529064741846515L 14.285714285714286 4.665741272375085L 17.142857142857142 4.435078332523613L 20 4.193626136499864L 22.857142857142858 3.9120833359622935L 25.714285714285715 3.5475200484570095L 28.571428571428573 3.1949952994176307L 31.42857142857143 2.729694430598581L 34.285714285714285 2.295966332473135L 37.142857142857146 2L 37.142857142857146 20 L -5.714285714285714 20"></path>
					<path class="sparkline" style="stroke:#555555;" d="M -2.857142857142857 5.858124436087852L 0 5.698329873620583L 2.857142857142857 5.522294641336099L 5.714285714285714 5.308440226889854L 8.571428571428571 5.062331615044386L 11.428571428571429 4.8529064741846515L 14.285714285714286 4.665741272375085L 17.142857142857142 4.435078332523613L 20 4.193626136499864L 22.857142857142858 3.9120833359622935L 25.714285714285715 3.5475200484570095L 28.571428571428573 3.1949952994176307L 31.42857142857143 2.729694430598581L 34.285714285714285 2.295966332473135L 37.142857142857146 2"></path>
				
				
		</svg>