<?xml version="1.0" encoding="UTF-8"?>
		<svg xmlns="http://www.w3.org/2000/svg"  preserveAspectRatio="none" width="40" height="20">
			<style>
				* {
					vector-effect: non-scaling-stroke;
				}

				.sparkline {
					stroke-width: 2;
					fill: transparent;
					stroke: black;
				}

				.anomaly {
					stroke-dasharray: 4, 2;
					stroke-dashoffset: 1;
				}

			

			</style>

			<path class="sparkline-fill" style="fill:#e1e1e1;" d="M -2.857142857142857 3.584730290847183L 0 2.3801400194144087L 2.857142857142857 2.329881108110367L 5.714285714285714 2L 8.571428571428571 2.2528474834574617L 11.428571428571429 2.232136426791996L 14.285714285714286 2.2688410216602257L 17.142857142857142 2.341225118693039L 20 4.179077672556783L 22.857142857142858 4.488592908279454L 25.714285714285715 4.000376817974621L 28.571428571428573 4.9786865918526875L 31.42857142857143 4.968331063519962L 34.285714285714285 5.404183744901928L 37.142857142857146 4.654036459053939L 37.142857142857146 20 L -5.714285714285714 20"></path>
					<path class="sparkline" style="stroke:#555555;" d="M -2.857142857142857 3.584730290847183L 0 2.3801400194144087L 2.857142857142857 2.329881108110367L 5.714285714285714 2L 8.571428571428571 2.2528474834574617L 11.428571428571429 2.232136426791996L 14.285714285714286 2.2688410216602257L 17.142857142857142 2.341225118693039L 20 4.179077672556783L 22.857142857142858 4.488592908279454L 25.714285714285715 4.000376817974621L 28.571428571428573 4.9786865918526875L 31.42857142857143 4.968331063519962L 34.285714285714285 5.404183744901928L 37.142857142857146 4.654036459053939"></path>
				
				
		</svg>